<mxfile host="app.diagrams.net" modified="2023-05-12T02:19:49.143Z" agent="Mozilla/5.0 (X11; Linux x86_64) AppleWebKit/537.36 (KHTML, like Gecko) Chrome/113.0.0.0 Safari/537.36" etag="TZTRjVEsQAKuN6MlP_p-" version="21.2.9" type="github">
  <diagram name="PÃ¡gina-1" id="CE0wCYGftJY5i8jobXnX">
    <mxGraphModel dx="1434" dy="803" grid="1" gridSize="10" guides="1" tooltips="1" connect="1" arrows="1" fold="1" page="1" pageScale="1" pageWidth="827" pageHeight="1169" math="0" shadow="0">
      <root>
        <mxCell id="0" />
        <mxCell id="1" parent="0" />
        <mxCell id="5-VP5YGX4s93a5erIt3x-3" value="" style="rounded=0;whiteSpace=wrap;html=1;" vertex="1" parent="1">
          <mxGeometry x="210" y="70" width="546" height="580" as="geometry" />
        </mxCell>
        <mxCell id="5-VP5YGX4s93a5erIt3x-2" value="Gerente&lt;br&gt;" style="shape=umlActor;verticalLabelPosition=bottom;verticalAlign=top;html=1;" vertex="1" parent="1">
          <mxGeometry x="40" y="305" width="60" height="110" as="geometry" />
        </mxCell>
        <mxCell id="5-VP5YGX4s93a5erIt3x-4" value="Sistema de gerenciamento de banda" style="text;align=center;fontStyle=1;verticalAlign=middle;spacingLeft=3;spacingRight=3;strokeColor=none;rotatable=0;points=[[0,0.5],[1,0.5]];portConstraint=eastwest;html=1;" vertex="1" parent="1">
          <mxGeometry x="443" y="70" width="80" height="26" as="geometry" />
        </mxCell>
        <mxCell id="5-VP5YGX4s93a5erIt3x-5" value="Cadastrar Banda" style="ellipse;whiteSpace=wrap;html=1;" vertex="1" parent="1">
          <mxGeometry x="274" y="140" width="140" height="70" as="geometry" />
        </mxCell>
        <mxCell id="5-VP5YGX4s93a5erIt3x-6" value="Excluir Banda" style="ellipse;whiteSpace=wrap;html=1;" vertex="1" parent="1">
          <mxGeometry x="274" y="340" width="140" height="70" as="geometry" />
        </mxCell>
        <mxCell id="5-VP5YGX4s93a5erIt3x-7" value="Trocar Banda" style="ellipse;whiteSpace=wrap;html=1;" vertex="1" parent="1">
          <mxGeometry x="274" y="240" width="140" height="70" as="geometry" />
        </mxCell>
        <mxCell id="5-VP5YGX4s93a5erIt3x-8" value="Acessar Loja" style="ellipse;whiteSpace=wrap;html=1;" vertex="1" parent="1">
          <mxGeometry x="274" y="440" width="140" height="70" as="geometry" />
        </mxCell>
        <mxCell id="5-VP5YGX4s93a5erIt3x-9" value="Realizar Show" style="ellipse;whiteSpace=wrap;html=1;" vertex="1" parent="1">
          <mxGeometry x="274" y="540" width="140" height="70" as="geometry" />
        </mxCell>
        <mxCell id="5-VP5YGX4s93a5erIt3x-14" value="" style="endArrow=none;html=1;rounded=0;entryX=0.014;entryY=0.671;entryDx=0;entryDy=0;entryPerimeter=0;" edge="1" parent="1" source="5-VP5YGX4s93a5erIt3x-2" target="5-VP5YGX4s93a5erIt3x-5">
          <mxGeometry relative="1" as="geometry">
            <mxPoint x="240" y="450" as="sourcePoint" />
            <mxPoint x="400" y="450" as="targetPoint" />
          </mxGeometry>
        </mxCell>
        <mxCell id="5-VP5YGX4s93a5erIt3x-15" value="" style="endArrow=none;html=1;rounded=0;entryX=0;entryY=0.5;entryDx=0;entryDy=0;" edge="1" parent="1" source="5-VP5YGX4s93a5erIt3x-2" target="5-VP5YGX4s93a5erIt3x-7">
          <mxGeometry relative="1" as="geometry">
            <mxPoint x="100" y="340" as="sourcePoint" />
            <mxPoint x="400" y="450" as="targetPoint" />
          </mxGeometry>
        </mxCell>
        <mxCell id="5-VP5YGX4s93a5erIt3x-16" value="" style="endArrow=none;html=1;rounded=0;entryX=0;entryY=0.5;entryDx=0;entryDy=0;" edge="1" parent="1" source="5-VP5YGX4s93a5erIt3x-2" target="5-VP5YGX4s93a5erIt3x-6">
          <mxGeometry relative="1" as="geometry">
            <mxPoint x="240" y="450" as="sourcePoint" />
            <mxPoint x="400" y="450" as="targetPoint" />
          </mxGeometry>
        </mxCell>
        <mxCell id="5-VP5YGX4s93a5erIt3x-17" value="" style="endArrow=none;html=1;rounded=0;entryX=0;entryY=0.5;entryDx=0;entryDy=0;" edge="1" parent="1" source="5-VP5YGX4s93a5erIt3x-2" target="5-VP5YGX4s93a5erIt3x-8">
          <mxGeometry relative="1" as="geometry">
            <mxPoint x="250" y="460" as="sourcePoint" />
            <mxPoint x="410" y="460" as="targetPoint" />
          </mxGeometry>
        </mxCell>
        <mxCell id="5-VP5YGX4s93a5erIt3x-18" value="" style="endArrow=none;html=1;rounded=0;entryX=0;entryY=0.5;entryDx=0;entryDy=0;" edge="1" parent="1" source="5-VP5YGX4s93a5erIt3x-2" target="5-VP5YGX4s93a5erIt3x-9">
          <mxGeometry relative="1" as="geometry">
            <mxPoint x="260" y="470" as="sourcePoint" />
            <mxPoint x="420" y="470" as="targetPoint" />
          </mxGeometry>
        </mxCell>
        <mxCell id="5-VP5YGX4s93a5erIt3x-19" value="Comprar Musico" style="ellipse;whiteSpace=wrap;html=1;" vertex="1" parent="1">
          <mxGeometry x="510" y="440" width="140" height="70" as="geometry" />
        </mxCell>
        <mxCell id="5-VP5YGX4s93a5erIt3x-20" value="" style="endArrow=block;dashed=1;endFill=0;endSize=12;html=1;rounded=0;exitX=0;exitY=0.5;exitDx=0;exitDy=0;entryX=1;entryY=0.5;entryDx=0;entryDy=0;" edge="1" parent="1" source="5-VP5YGX4s93a5erIt3x-19" target="5-VP5YGX4s93a5erIt3x-8">
          <mxGeometry width="160" relative="1" as="geometry">
            <mxPoint x="240" y="450" as="sourcePoint" />
            <mxPoint x="400" y="450" as="targetPoint" />
          </mxGeometry>
        </mxCell>
        <mxCell id="5-VP5YGX4s93a5erIt3x-22" value="&lt;span style=&quot;font-weight: normal;&quot;&gt;&amp;lt;&amp;lt;include&amp;gt;&amp;gt;&lt;/span&gt;" style="text;align=center;fontStyle=1;verticalAlign=middle;spacingLeft=3;spacingRight=3;strokeColor=none;rotatable=0;points=[[0,0.5],[1,0.5]];portConstraint=eastwest;html=1;" vertex="1" parent="1">
          <mxGeometry x="430" y="450" width="80" height="26" as="geometry" />
        </mxCell>
      </root>
    </mxGraphModel>
  </diagram>
</mxfile>
